<svg width="27" height="26" viewBox="0 0 27 26" fill="none" xmlns="http://www.w3.org/2000/svg">
<path d="M6.15912 13.9601C6.15912 12.5308 6.15912 11.8162 6.44803 11.1881C6.73694 10.5599 7.27953 10.0948 8.36469 9.16468L9.41734 8.2624C11.3788 6.58118 12.3595 5.74057 13.5277 5.74057C14.6959 5.74057 15.6766 6.58118 17.638 8.2624L18.6907 9.16468C19.7759 10.0948 20.3184 10.5599 20.6073 11.1881C20.8963 11.8162 20.8963 12.5308 20.8963 13.9601V18.4237C20.8963 20.4086 20.8963 21.4011 20.2796 22.0177C19.663 22.6344 18.6706 22.6344 16.6856 22.6344H10.3697C8.38483 22.6344 7.39238 22.6344 6.77575 22.0177C6.15912 21.4011 6.15912 20.4086 6.15912 18.4237V13.9601Z" stroke="#E7ECEF" stroke-width="1.68424"/>
<path d="M16.1593 22.6343V17.1605C16.1593 16.6955 15.7823 16.3184 15.3172 16.3184H11.7382C11.2731 16.3184 10.8961 16.6955 10.8961 17.1605V22.6343" stroke="#E7ECEF" stroke-width="1.68424" stroke-linecap="round" stroke-linejoin="round"/>
</svg>
