<svg width="22" height="22" viewBox="0 0 22 22" fill="none" xmlns="http://www.w3.org/2000/svg">
<path d="M20.0062 10.5269L20.6638 11.0529C20.9098 10.7454 20.9098 10.3084 20.6638 10.0008L20.0062 10.5269ZM12.1113 9.68476C11.6462 9.68476 11.2691 10.0618 11.2691 10.5269C11.2691 10.992 11.6462 11.369 12.1113 11.369L12.1113 9.68476ZM17.1549 15.439L20.6638 11.0529L19.3486 10.0008L15.8397 14.3869L17.1549 15.439ZM20.6638 10.0008L17.1549 5.61475L15.8397 6.66689L19.3486 11.0529L20.6638 10.0008ZM20.0062 9.68476L12.1113 9.68476L12.1113 11.369L20.0062 11.369L20.0062 9.68476Z" fill="#274C77"/>
<path d="M12.9884 13.92L12.9884 14.691C12.9884 16.0538 12.9884 16.7353 12.5893 17.2064C12.1901 17.6776 11.518 17.7896 10.1737 18.0136L8.34527 18.3184C5.61419 18.7736 4.24864 19.0012 3.35526 18.2443C2.46187 17.4875 2.46187 16.1032 2.46187 13.3344L2.46187 7.71929C2.46187 4.95053 2.46187 3.56615 3.35526 2.80934C4.24865 2.05253 5.61419 2.28012 8.34527 2.7353L10.1737 3.04004C11.518 3.26409 12.1901 3.37611 12.5893 3.84727C12.9884 4.31843 12.9884 4.99985 12.9884 6.3627L12.9884 6.96013" stroke="#274C77" stroke-width="1.68424" stroke-linecap="round"/>
</svg>
